<svg width="49" height="10" viewBox="0 0 49 10" fill="none" xmlns="http://www.w3.org/2000/svg">
<path d="M6.816 1.092C6.824 1.148 6.828 1.2 6.828 1.248C6.828 1.296 6.828 1.344 6.828 1.392V1.884L6.756 8.112V8.232C6.756 8.28 6.744 8.352 6.72 8.448C6.712 8.488 6.7 8.532 6.684 8.58C6.668 8.62 6.652 8.664 6.636 8.712C6.596 8.808 6.54 8.88 6.468 8.928C6.404 8.992 6.3 9.036 6.156 9.06C5.932 9.108 5.728 9.088 5.544 9C5.44 8.936 5.368 8.856 5.328 8.76C5.312 8.744 5.296 8.72 5.28 8.688C5.28 8.672 5.272 8.648 5.256 8.616C5.24 8.576 5.228 8.536 5.22 8.496C5.212 8.448 5.204 8.4 5.196 8.352C5.196 8.312 5.192 8.272 5.184 8.232C5.184 8.192 5.18 8.152 5.172 8.112C5.156 8.072 5.148 8.04 5.148 8.016C5.148 7.984 5.148 7.948 5.148 7.908C5.164 7.876 5.172 7.816 5.172 7.728L5.184 6.78L5.196 5.268H4.548L2.112 5.28L2.088 8.112V8.232C2.088 8.28 2.076 8.352 2.052 8.448C2.044 8.488 2.032 8.532 2.016 8.58C2 8.62 1.984 8.664 1.968 8.712C1.928 8.808 1.872 8.88 1.8 8.928C1.736 8.992 1.632 9.036 1.488 9.06C1.264 9.108 1.06 9.088 0.876 9C0.796 8.952 0.72 8.872 0.648 8.76C0.632 8.728 0.624 8.704 0.624 8.688L0.588 8.616C0.572 8.576 0.56 8.536 0.552 8.496C0.544 8.448 0.536 8.4 0.528 8.352C0.528 8.312 0.524 8.272 0.516 8.232C0.508 8.192 0.5 8.152 0.492 8.112C0.484 8.048 0.484 7.98 0.492 7.908V7.728L0.504 6.78L0.528 5.016C0.536 4.76 0.54 4.496 0.54 4.224C0.54 3.952 0.54 3.672 0.54 3.384C0.532 3.096 0.528 2.84 0.528 2.616C0.536 2.392 0.548 2.14 0.564 1.86V1.812C0.572 1.732 0.576 1.652 0.576 1.572C0.576 1.484 0.58 1.396 0.588 1.308C0.596 1.228 0.608 1.152 0.624 1.08C0.648 1 0.68 0.92 0.72 0.84C0.744 0.776 0.776 0.724 0.816 0.684C0.856 0.635999 0.904 0.591999 0.96 0.551999C1.088 0.488 1.216 0.456 1.344 0.456C1.408 0.456 1.464 0.46 1.512 0.468C1.56 0.468 1.608 0.472 1.656 0.48C1.752 0.487999 1.844 0.536 1.932 0.624C1.996 0.68 2.04 0.743999 2.064 0.816C2.104 0.92 2.128 1.012 2.136 1.092C2.144 1.148 2.148 1.2 2.148 1.248C2.148 1.296 2.148 1.344 2.148 1.392V1.884L2.124 3.864C2.188 3.864 2.26 3.864 2.34 3.864C2.428 3.864 2.528 3.86 2.64 3.852C3.056 3.852 3.468 3.856 3.876 3.864C4.292 3.872 4.728 3.876 5.184 3.876H5.196C5.196 3.516 5.196 3.172 5.196 2.844C5.204 2.516 5.216 2.172 5.232 1.812C5.232 1.732 5.232 1.652 5.232 1.572C5.24 1.484 5.248 1.396 5.256 1.308C5.264 1.228 5.276 1.152 5.292 1.08C5.316 1 5.348 0.92 5.388 0.84C5.404 0.776 5.432 0.724 5.472 0.684C5.52 0.635999 5.576 0.591999 5.64 0.551999C5.752 0.488 5.876 0.456 6.012 0.456C6.076 0.456 6.132 0.46 6.18 0.468C6.236 0.468 6.284 0.472 6.324 0.48C6.436 0.496 6.528 0.544 6.6 0.624C6.664 0.664 6.708 0.728 6.732 0.816C6.748 0.863999 6.76 0.911999 6.768 0.96C6.784 1 6.8 1.044 6.816 1.092ZM9.9165 0.792C10.4525 0.592 10.9365 0.503999 11.3685 0.528C11.8085 0.552 12.2005 0.664 12.5445 0.864C12.8885 1.056 13.1805 1.316 13.4205 1.644C13.6685 1.972 13.8685 2.34 14.0205 2.748C14.1405 3.052 14.2325 3.372 14.2965 3.708C14.3605 4.044 14.3965 4.38 14.4045 4.716C14.4205 5.044 14.4085 5.368 14.3685 5.688C14.3365 6.008 14.2805 6.304 14.2005 6.576C14.1525 6.76 14.0965 6.928 14.0325 7.08C13.9685 7.232 13.8925 7.384 13.8045 7.536C13.6045 7.88 13.3445 8.16 13.0245 8.376C12.7125 8.592 12.3685 8.744 11.9925 8.832C11.7365 8.896 11.4725 8.928 11.2005 8.928C10.9285 8.92 10.6605 8.884 10.3965 8.82C10.1325 8.748 9.8765 8.648 9.6285 8.52C9.3885 8.384 9.1685 8.216 8.9685 8.016C8.7205 7.776 8.5165 7.5 8.3565 7.188C8.1965 6.868 8.0725 6.536 7.9845 6.192C7.8965 5.84 7.8405 5.488 7.8165 5.136C7.7925 4.784 7.7925 4.448 7.8165 4.128C7.8405 3.832 7.8965 3.516 7.9845 3.18C8.0805 2.844 8.2165 2.52 8.3925 2.208C8.5685 1.896 8.7805 1.616 9.0285 1.368C9.2845 1.112 9.5805 0.92 9.9165 0.792ZM12.7245 5.928C12.8205 5.552 12.8605 5.128 12.8445 4.656C12.8285 4.184 12.7525 3.74 12.6165 3.324C12.5285 3.068 12.4165 2.844 12.2805 2.652C12.1525 2.452 11.9965 2.3 11.8125 2.196C11.6365 2.092 11.4285 2.04 11.1885 2.04C10.9485 2.04 10.6805 2.112 10.3845 2.256C10.2085 2.344 10.0565 2.464 9.9285 2.616C9.8085 2.768 9.7085 2.94 9.6285 3.132C9.5565 3.324 9.4965 3.524 9.4485 3.732C9.4085 3.94 9.3845 4.14 9.3765 4.332C9.3605 4.54 9.3565 4.76 9.3645 4.992C9.3725 5.216 9.3965 5.444 9.4365 5.676C9.4845 5.9 9.5485 6.116 9.6285 6.324C9.7085 6.524 9.8165 6.704 9.9525 6.864C10.1605 7.104 10.4005 7.272 10.6725 7.368C10.9525 7.456 11.2285 7.468 11.5005 7.404C11.9405 7.308 12.2765 7.016 12.5085 6.528C12.6045 6.352 12.6765 6.152 12.7245 5.928ZM21.4126 0.875999C21.5006 0.98 21.5446 1.088 21.5446 1.2C21.5446 1.248 21.5406 1.3 21.5326 1.356C21.5326 1.404 21.5286 1.448 21.5206 1.488C21.4966 1.576 21.4446 1.66 21.3646 1.74C21.3006 1.788 21.2126 1.824 21.1006 1.848C21.0446 1.864 20.9886 1.876 20.9326 1.884C20.8766 1.892 20.8166 1.904 20.7526 1.92C20.6966 1.928 20.6406 1.932 20.5846 1.932C20.5286 1.932 20.4686 1.932 20.4046 1.932H19.7926C19.6486 1.94 19.5046 1.944 19.3606 1.944C19.2246 1.944 19.0886 1.944 18.9526 1.944C18.9606 2.192 18.9646 2.46 18.9646 2.748C18.9646 3.028 18.9606 3.356 18.9526 3.732C18.9526 4.108 18.9486 4.544 18.9406 5.04C18.9406 5.536 18.9406 6.112 18.9406 6.768V7.68C18.9406 7.76 18.9446 7.82 18.9526 7.86C18.9526 7.892 18.9526 7.924 18.9526 7.956C18.9526 7.98 18.9486 8.012 18.9406 8.052C18.9246 8.124 18.9126 8.208 18.9046 8.304C18.9046 8.344 18.9006 8.384 18.8926 8.424C18.8846 8.456 18.8726 8.492 18.8566 8.532C18.8246 8.564 18.8086 8.588 18.8086 8.604L18.7726 8.676C18.7326 8.756 18.6566 8.832 18.5446 8.904C18.3686 8.992 18.1726 9.012 17.9566 8.964C17.8206 8.948 17.7166 8.912 17.6446 8.856C17.5726 8.784 17.5206 8.712 17.4886 8.64C17.4406 8.552 17.4126 8.468 17.4046 8.388C17.3806 8.316 17.3686 8.24 17.3686 8.16V1.992C17.3206 1.992 17.2206 1.992 17.0686 1.992C16.9166 1.992 16.7526 1.992 16.5766 1.992C16.4086 1.984 16.2486 1.976 16.0966 1.968C15.9446 1.96 15.8406 1.952 15.7846 1.944C15.7366 1.936 15.6606 1.924 15.5566 1.908C15.4606 1.892 15.3806 1.876 15.3166 1.86C15.1486 1.812 15.0166 1.736 14.9206 1.632C14.8326 1.528 14.7886 1.412 14.7886 1.284C14.7886 1.236 14.7886 1.188 14.7886 1.14C14.7886 1.092 14.7966 1.048 14.8126 1.008C14.8366 0.912 14.9006 0.832 15.0046 0.767999C15.0366 0.744 15.0846 0.716 15.1486 0.684C15.2206 0.644 15.2886 0.616 15.3526 0.599999C15.4486 0.567999 15.5686 0.543999 15.7126 0.528C15.7766 0.52 15.8406 0.516 15.9046 0.516C15.9686 0.516 16.0366 0.516 16.1086 0.516C16.3886 0.516 16.6526 0.516 16.9006 0.516C17.1566 0.516 17.4246 0.512 17.7046 0.504C18.1686 0.496 18.6286 0.496 19.0846 0.504C19.5486 0.504 20.0086 0.512 20.4646 0.528C20.5686 0.536 20.6686 0.548 20.7646 0.564C20.8606 0.58 20.9566 0.608 21.0526 0.648C21.1246 0.672 21.1926 0.704 21.2566 0.744C21.3206 0.776 21.3726 0.82 21.4126 0.875999ZM24.1435 1.944L24.1195 3.828H24.5995C24.9275 3.82 25.2195 3.816 25.4755 3.816C25.7315 3.816 26.0155 3.82 26.3275 3.828H26.3875C26.4835 3.828 26.5755 3.832 26.6635 3.84C26.7595 3.84 26.8515 3.84 26.9395 3.84C27.0355 3.848 27.1275 3.864 27.2155 3.888C27.3035 3.904 27.3915 3.924 27.4795 3.948C27.6155 3.996 27.7275 4.068 27.8155 4.164C27.8955 4.268 27.9355 4.384 27.9355 4.512C27.9355 4.552 27.9355 4.6 27.9355 4.656C27.9355 4.704 27.9275 4.748 27.9115 4.788C27.8955 4.876 27.8435 4.956 27.7555 5.028C27.7155 5.084 27.6395 5.124 27.5275 5.148C27.4235 5.18 27.3195 5.2 27.2155 5.208C27.1035 5.232 26.9915 5.244 26.8795 5.244H26.3155L24.0955 5.256L24.0715 7.608L26.4595 7.632H27.0235C27.0875 7.632 27.1475 7.632 27.2035 7.632C27.2595 7.632 27.3115 7.636 27.3595 7.644C27.4235 7.66 27.4795 7.672 27.5275 7.68C27.5835 7.68 27.6355 7.688 27.6835 7.704C27.7795 7.736 27.8595 7.78 27.9235 7.836C28.0035 7.916 28.0555 8 28.0795 8.088C28.0875 8.128 28.0915 8.172 28.0915 8.22C28.0995 8.26 28.0995 8.304 28.0915 8.352C28.0915 8.48 28.0515 8.596 27.9715 8.7C27.8755 8.812 27.7635 8.884 27.6355 8.916C27.4675 8.988 27.2835 9.024 27.0835 9.024C26.9955 9.032 26.9035 9.036 26.8075 9.036C26.7115 9.036 26.6195 9.04 26.5315 9.048H26.4595C25.8355 9.064 25.1875 9.064 24.5155 9.048C24.3555 9.048 24.2275 9.044 24.1315 9.036C24.0355 9.036 23.9475 9.036 23.8675 9.036C23.7955 9.036 23.7195 9.036 23.6395 9.036C23.5595 9.036 23.4555 9.036 23.3275 9.036C23.1435 9.052 22.9915 9.02 22.8715 8.94C22.7835 8.884 22.7155 8.808 22.6675 8.712C22.6435 8.688 22.6315 8.664 22.6315 8.64C22.6235 8.624 22.6155 8.612 22.6075 8.604C22.5995 8.596 22.5915 8.584 22.5835 8.568C22.5675 8.528 22.5555 8.488 22.5475 8.448C22.5395 8.4 22.5355 8.356 22.5355 8.316C22.5275 8.276 22.5195 8.236 22.5115 8.196C22.5115 8.156 22.5075 8.116 22.4995 8.076V7.884C22.4995 7.852 22.4995 7.82 22.4995 7.788C22.5075 7.756 22.5115 7.724 22.5115 7.692V6.756L22.5355 5.028V3.432C22.5355 3.144 22.5355 2.888 22.5355 2.664C22.5435 2.44 22.5515 2.196 22.5595 1.932V1.872C22.5675 1.784 22.5715 1.704 22.5715 1.632C22.5795 1.552 22.5835 1.472 22.5835 1.392C22.5915 1.232 22.6355 1.076 22.7155 0.924C22.7475 0.859999 22.7795 0.803999 22.8115 0.756C22.8515 0.708 22.9035 0.668 22.9675 0.636C23.0875 0.564 23.2115 0.528 23.3395 0.528C23.4035 0.528 23.4515 0.532 23.4835 0.539999V0.528C23.6275 0.528 23.7435 0.528 23.8315 0.528C23.9195 0.528 24.0035 0.528 24.0835 0.528C24.1715 0.528 24.2635 0.528 24.3595 0.528C24.4555 0.52 24.5875 0.516 24.7555 0.516C25.0755 0.508 25.3795 0.504 25.6675 0.504C25.9555 0.504 26.2515 0.508 26.5555 0.516H26.6035C26.6915 0.524 26.7835 0.528 26.8795 0.528C26.9755 0.528 27.0675 0.532 27.1555 0.539999C27.2435 0.539999 27.3315 0.552 27.4195 0.576C27.5075 0.592 27.5955 0.615999 27.6835 0.648C27.8195 0.687999 27.9315 0.756 28.0195 0.852C28.0915 0.964 28.1275 1.076 28.1275 1.188C28.1275 1.236 28.1275 1.284 28.1275 1.332C28.1275 1.372 28.1195 1.412 28.1035 1.452C28.0955 1.532 28.0475 1.616 27.9595 1.704C27.9275 1.72 27.8915 1.74 27.8515 1.764C27.8195 1.788 27.7795 1.808 27.7315 1.824C27.6835 1.84 27.6315 1.852 27.5755 1.86C27.5275 1.86 27.4795 1.864 27.4315 1.872C27.3675 1.888 27.3075 1.896 27.2515 1.896C27.2035 1.896 27.1475 1.896 27.0835 1.896H26.5435L24.1435 1.908V1.944ZM34.6295 8.088C34.6455 8.128 34.6535 8.188 34.6535 8.268C34.6535 8.34 34.6535 8.4 34.6535 8.448C34.6535 8.512 34.6415 8.572 34.6175 8.628C34.5935 8.684 34.5615 8.736 34.5215 8.784C34.4495 8.88 34.3455 8.952 34.2095 9C34.0175 9.064 33.8375 9.096 33.6695 9.096C33.5815 9.104 33.4895 9.108 33.3935 9.108C33.2975 9.108 33.2015 9.116 33.1055 9.132H33.0575C32.4415 9.14 31.8055 9.14 31.1495 9.132C30.9895 9.124 30.8095 9.124 30.6095 9.132C30.4095 9.148 30.2135 9.144 30.0215 9.12C29.8295 9.104 29.6535 9.06 29.4935 8.988C29.3415 8.908 29.2335 8.784 29.1695 8.616C29.1535 8.576 29.1415 8.54 29.1335 8.508C29.1255 8.468 29.1215 8.428 29.1215 8.388C29.0895 8.116 29.0775 7.848 29.0855 7.584C29.0935 7.32 29.0975 7.06 29.0975 6.804L29.1215 5.064V3.456C29.1215 3.168 29.1215 2.912 29.1215 2.688C29.1295 2.464 29.1375 2.216 29.1455 1.944V1.884C29.1535 1.804 29.1575 1.724 29.1575 1.644C29.1655 1.564 29.1695 1.484 29.1695 1.404C29.1855 1.22 29.2295 1.064 29.3015 0.935999C29.3495 0.816 29.4335 0.72 29.5535 0.648C29.6575 0.575999 29.7815 0.539999 29.9255 0.539999C29.9815 0.539999 30.0335 0.543999 30.0815 0.551999C30.1375 0.551999 30.1895 0.556 30.2375 0.564C30.2855 0.572 30.3295 0.588 30.3695 0.611999C30.4175 0.635999 30.4655 0.668 30.5135 0.707999C30.5615 0.764 30.6055 0.832 30.6455 0.912C30.6775 1 30.6975 1.088 30.7055 1.176C30.7135 1.232 30.7215 1.284 30.7295 1.332C30.7375 1.38 30.7415 1.428 30.7415 1.476C30.7255 1.524 30.7175 1.572 30.7175 1.62C30.7175 1.668 30.7175 1.712 30.7175 1.752V1.968L30.6695 7.62L33.0455 7.644H33.6095C33.6575 7.644 33.7095 7.648 33.7655 7.656C33.8215 7.656 33.8775 7.66 33.9335 7.668C33.9975 7.676 34.0535 7.684 34.1015 7.692C34.1495 7.7 34.1975 7.712 34.2455 7.728C34.3335 7.752 34.4055 7.792 34.4615 7.848C34.5495 7.928 34.6055 8.008 34.6295 8.088Z" fill="#262951"/>
<path d="M41.1171 6.144C41.1171 6.384 41.1051 6.628 41.0811 6.876C41.0571 7.116 41.0091 7.352 40.9371 7.584C40.8651 7.808 40.7571 8.024 40.6131 8.232C40.4691 8.432 40.2731 8.608 40.0251 8.76C39.9051 8.84 39.7611 8.908 39.5931 8.964C39.4331 9.012 39.2611 9.052 39.0771 9.084C38.9011 9.124 38.7251 9.148 38.5491 9.156C38.3731 9.172 38.2091 9.176 38.0571 9.168C37.3371 9.144 36.7531 8.972 36.3051 8.652C35.8651 8.324 35.5251 7.92 35.2851 7.44C35.0531 6.96 34.9011 6.44 34.8291 5.88C34.7651 5.312 34.7531 4.772 34.7931 4.26C34.8171 3.956 34.8691 3.628 34.9491 3.276C35.0371 2.924 35.1611 2.584 35.3211 2.256C35.4891 1.928 35.6931 1.632 35.9331 1.368C36.1811 1.104 36.4731 0.904 36.8091 0.767999C37.1211 0.64 37.4611 0.56 37.8291 0.528C38.2051 0.488 38.5731 0.5 38.9331 0.564C39.3011 0.628 39.6411 0.743999 39.9531 0.912C40.2731 1.08 40.5251 1.304 40.7091 1.584C40.8371 1.792 40.9371 2.044 41.0091 2.34C41.0811 2.636 41.0931 2.92 41.0451 3.192C41.0051 3.432 40.9211 3.6 40.7931 3.696C40.6651 3.784 40.5251 3.82 40.3731 3.804C40.2211 3.78 40.0731 3.716 39.9291 3.612C39.7931 3.5 39.7011 3.36 39.6531 3.192C39.5971 3.008 39.5291 2.84 39.4491 2.688C39.3691 2.528 39.2451 2.396 39.0771 2.292C38.8851 2.172 38.6811 2.104 38.4651 2.088C38.2571 2.072 38.0531 2.096 37.8531 2.16C37.6611 2.224 37.4771 2.324 37.3011 2.46C37.1331 2.596 36.9931 2.752 36.8811 2.928C36.7451 3.128 36.6411 3.348 36.5691 3.588C36.4971 3.82 36.4451 4.064 36.4131 4.32C36.3811 4.568 36.3691 4.82 36.3771 5.076C36.3931 5.324 36.4251 5.564 36.4731 5.796C36.5611 6.188 36.6971 6.556 36.8811 6.9C36.9531 7.028 37.0491 7.144 37.1691 7.248C37.2971 7.344 37.4371 7.424 37.5891 7.488C37.7411 7.544 37.9011 7.58 38.0691 7.596C38.2371 7.612 38.3971 7.6 38.5491 7.56C38.7651 7.504 38.9411 7.432 39.0771 7.344C39.2131 7.248 39.3211 7.136 39.4011 7.008C39.4811 6.88 39.5331 6.74 39.5571 6.588C39.5891 6.436 39.6051 6.276 39.6051 6.108V6.096C39.5011 6.096 39.4091 6.096 39.3291 6.096C39.2491 6.088 39.1891 6.084 39.1491 6.084C38.9731 6.084 38.8011 6.052 38.6331 5.988C38.4891 5.94 38.3811 5.864 38.3091 5.76C38.2291 5.672 38.1891 5.564 38.1891 5.436C38.1891 5.388 38.1891 5.344 38.1891 5.304C38.1971 5.256 38.2051 5.208 38.2131 5.16C38.2371 5.096 38.2891 5.016 38.3691 4.92C38.4171 4.88 38.4931 4.848 38.5971 4.824C38.6451 4.808 38.6931 4.796 38.7411 4.788C38.7891 4.772 38.8451 4.76 38.9091 4.752C38.9571 4.744 39.0091 4.74 39.0651 4.74C39.1211 4.74 39.1771 4.74 39.2331 4.74H40.3251C40.4131 4.732 40.5131 4.744 40.6251 4.776C40.7451 4.8 40.8371 4.84 40.9011 4.896C40.9251 4.928 40.9491 4.96 40.9731 4.992C40.9971 5.024 41.0171 5.06 41.0331 5.1C41.0651 5.188 41.0851 5.276 41.0931 5.364C41.1011 5.412 41.1051 5.464 41.1051 5.52C41.1131 5.568 41.1171 5.612 41.1171 5.652V6.144ZM44.2056 0.792C44.7416 0.592 45.2256 0.503999 45.6576 0.528C46.0976 0.552 46.4896 0.664 46.8336 0.864C47.1776 1.056 47.4696 1.316 47.7096 1.644C47.9576 1.972 48.1576 2.34 48.3096 2.748C48.4296 3.052 48.5216 3.372 48.5856 3.708C48.6496 4.044 48.6856 4.38 48.6936 4.716C48.7096 5.044 48.6976 5.368 48.6576 5.688C48.6256 6.008 48.5696 6.304 48.4896 6.576C48.4416 6.76 48.3856 6.928 48.3216 7.08C48.2576 7.232 48.1816 7.384 48.0936 7.536C47.8936 7.88 47.6336 8.16 47.3136 8.376C47.0016 8.592 46.6576 8.744 46.2816 8.832C46.0256 8.896 45.7616 8.928 45.4896 8.928C45.2176 8.92 44.9496 8.884 44.6856 8.82C44.4216 8.748 44.1656 8.648 43.9176 8.52C43.6776 8.384 43.4576 8.216 43.2576 8.016C43.0096 7.776 42.8056 7.5 42.6456 7.188C42.4856 6.868 42.3616 6.536 42.2736 6.192C42.1856 5.84 42.1296 5.488 42.1056 5.136C42.0816 4.784 42.0816 4.448 42.1056 4.128C42.1296 3.832 42.1856 3.516 42.2736 3.18C42.3696 2.844 42.5056 2.52 42.6816 2.208C42.8576 1.896 43.0696 1.616 43.3176 1.368C43.5736 1.112 43.8696 0.92 44.2056 0.792ZM47.0136 5.928C47.1096 5.552 47.1496 5.128 47.1336 4.656C47.1176 4.184 47.0416 3.74 46.9056 3.324C46.8176 3.068 46.7056 2.844 46.5696 2.652C46.4416 2.452 46.2856 2.3 46.1016 2.196C45.9256 2.092 45.7176 2.04 45.4776 2.04C45.2376 2.04 44.9696 2.112 44.6736 2.256C44.4976 2.344 44.3456 2.464 44.2176 2.616C44.0976 2.768 43.9976 2.94 43.9176 3.132C43.8456 3.324 43.7856 3.524 43.7376 3.732C43.6976 3.94 43.6736 4.14 43.6656 4.332C43.6496 4.54 43.6456 4.76 43.6536 4.992C43.6616 5.216 43.6856 5.444 43.7256 5.676C43.7736 5.9 43.8376 6.116 43.9176 6.324C43.9976 6.524 44.1056 6.704 44.2416 6.864C44.4496 7.104 44.6896 7.272 44.9616 7.368C45.2416 7.456 45.5176 7.468 45.7896 7.404C46.2296 7.308 46.5656 7.016 46.7976 6.528C46.8936 6.352 46.9656 6.152 47.0136 5.928Z" fill="#D92D3F"/>
</svg>
